<?xml version="1.0" encoding="UTF-8"?>
<!DOCTYPE svg  PUBLIC '-//W3C//DTD SVG 1.1//EN'  'http://www.w3.org/Graphics/SVG/1.1/DTD/svg11.dtd'>
<svg version="1.1" viewBox="0 0 256 256" xml:space="preserve"
	xmlns="http://www.w3.org/2000/svg">
	<desc>Created with Fabric.js 4.6.0</desc>
	<g transform="translate(89.15 125.17)" class="side">
		<path transform="translate(0)" d="m52.79 113.65-130.55-227.29 53.659 0.00555 101.87 174.89z" fill="#1c7950" stroke-linecap="round" stroke-width="0" vector-effect="non-scaling-stroke"/>
	</g>
	<g transform="matrix(2.64 0 0 2.64 108.07 27.23)" class="dot">
		<path transform="translate(0)" d="m0-6c3.312 0 6 2.688 6 6s-2.688 6-6 6-6-2.688-6-6 2.688-6 6-6z" fill="#329c6d" stroke-linecap="round" stroke-width="0" vector-effect="non-scaling-stroke"/>
	</g>
	<g transform="matrix(2.07 0 0 2.07 156.4 27.23)" class="dot">
		<path transform="translate(0)" d="m0-6c3.312 0 6 2.688 6 6s-2.688 6-6 6-6-2.688-6-6 2.688-6 6-6z" fill="#329c6d" stroke-linecap="round" stroke-width="0" vector-effect="non-scaling-stroke"/>
	</g>
	<g transform="matrix(1.42 0 0 1.42 199.41 27.23)" class="dot">
		<path transform="translate(0)" d="m0-6c3.312 0 6 2.688 6 6s-2.688 6-6 6-6-2.688-6-6 2.688-6 6-6z" fill="#329c6d" stroke-linecap="round" stroke-width="0" vector-effect="non-scaling-stroke"/>
	</g>
	<g transform="matrix(.81 0 0 .81 232.48 27.23)" class="dot">
		<path transform="translate(0)" d="m0-6c3.312 0 6 2.688 6 6s-2.688 6-6 6-6-2.688-6-6 2.688-6 6-6z" fill="#329c6d" stroke-linecap="round" stroke-width="0" vector-effect="non-scaling-stroke"/>
	</g>
	<g transform="matrix(2.07 0 0 2.07 139.87 70.5)" class="dot">
		<path transform="translate(0)" d="m0-6c3.312 0 6 2.688 6 6s-2.688 6-6 6-6-2.688-6-6 2.688-6 6-6z" fill="#329c6d" stroke-linecap="round" stroke-width="0" vector-effect="non-scaling-stroke"/>
	</g>
	<g transform="matrix(1.42 0 0 1.42 182.78 70.5)" class="dot">
		<path transform="translate(0)" d="m0-6c3.312 0 6 2.688 6 6s-2.688 6-6 6-6-2.688-6-6 2.688-6 6-6z" fill="#329c6d" stroke-linecap="round" stroke-width="0" vector-effect="non-scaling-stroke"/>
	</g>
	<g transform="matrix(.81 0 0 .81 217.05 70.5)" class="dot">
		<path transform="translate(0)" d="m0-6c3.312 0 6 2.688 6 6s-2.688 6-6 6-6-2.688-6-6 2.688-6 6-6z" fill="#329c6d" stroke-linecap="round" stroke-width="0" vector-effect="non-scaling-stroke"/>
	</g>
	<g transform="matrix(1.42 0 0 1.42 161.91 114.48)" class="dot">
		<path transform="translate(0)" d="m0-6c3.312 0 6 2.688 6 6s-2.688 6-6 6-6-2.688-6-6 2.688-6 6-6z" fill="#329c6d" stroke-linecap="round" stroke-width="0" vector-effect="non-scaling-stroke"/>
	</g>
	<g transform="matrix(.81 0 0 .81 194.99 114.48)" class="dot">
		<path transform="translate(0)" d="m0-6c3.312 0 6 2.688 6 6s-2.688 6-6 6-6-2.688-6-6 2.688-6 6-6z" fill="#329c6d" stroke-linecap="round" stroke-width="0" vector-effect="non-scaling-stroke"/>
	</g>
	<g transform="matrix(.81 0 0 .81 179.12 154.59)" class="dot">
		<path transform="translate(0)" d="m0-6c3.312 0 6 2.688 6 6s-2.688 6-6 6-6-2.688-6-6 2.688-6 6-6z" fill="#329c6d" stroke-linecap="round" stroke-width="0" vector-effect="non-scaling-stroke"/>
	</g>
</svg>
